<svg xmlns="http://www.w3.org/2000/svg" xmlns:xlink="http://www.w3.org/1999/xlink" width="840" height="257.1"><rect width="840" height="257.1" rx="0" ry="0" class="a"></rect><svg height="217.10000000000002" viewBox="0 0 80 21.71" width="800" x="20" xmlns="http://www.w3.org/2000/svg" xmlns:xlink="http://www.w3.org/1999/xlink" y="20"><style>.a{fill:rgb(22,27,34)}.b{font-family:'Fira Code',Monaco,Consolas,Menlo,'Bitstream Vera Sans Mono','Powerline Symbols',monospace}.c{fill:transparent}.d{fill:rgb(201,209,217);white-space:pre}</style><g font-family="&#x27;Fira Code&#x27;,Monaco,Consolas,Menlo,&#x27;Bitstream Vera Sans Mono&#x27;,&#x27;Powerline Symbols&#x27;,monospace" font-size="1.67" class="b"><defs><symbol id="a"><rect height="10" width="80" x="0" y="0" class="c"></rect></symbol></defs><rect height="21.71" width="80" class="a"></rect><svg x="0" y="0" width="80"><svg x="0"><use xlink:href="#a"></use><text font-size="1.67" x="3.006" y="1.67" class="d">threshold</text><text font-size="1.67" x="13.026" y="1.67" class="d">predictor</text><text font-size="1.67" x="23.045999999999996" y="1.67" class="d">id</text><text font-size="1.67" x="26.052" y="1.67" class="d">start</text><text font-size="1.67" x="32.064" y="1.67" class="d">end</text><text font-size="1.67" x="36.071999999999996" y="1.67" class="d">length</text><text font-size="1.67" x="43.086" y="1.67" class="d">sum_statistic</text><text font-size="1.67" x="61.12199999999999" y="1.67" class="d">pvalue</text><text font-size="1.67" x="0" y="3.8409999999999997" class="d">1</text><text font-size="1.67" x="9.017999999999999" y="3.8409999999999997" class="d">2.0</text><text font-size="1.67" x="17.034" y="3.8409999999999997" class="d">Diet2</text><text font-size="1.67" x="24.048" y="3.8409999999999997" class="d">1</text><text font-size="1.67" x="30.059999999999995" y="3.8409999999999997" class="d">3</text><text font-size="1.67" x="34.068" y="3.8409999999999997" class="d">5</text><text font-size="1.67" x="41.082" y="3.8409999999999997" class="d">3</text><text font-size="1.67" x="48.096" y="3.8409999999999997" class="d">8.496376</text><text font-size="1.67" x="57.114" y="3.8409999999999997" class="d">0.07920792</text><text font-size="1.67" x="0" y="6.012" class="d">2</text><text font-size="1.67" x="9.017999999999999" y="6.012" class="d">2.0</text><text font-size="1.67" x="17.034" y="6.012" class="d">Diet3</text><text font-size="1.67" x="24.048" y="6.012" class="d">1</text><text font-size="1.67" x="30.059999999999995" y="6.012" class="d">2</text><text font-size="1.67" x="33.065999999999995" y="6.012" class="d">12</text><text font-size="1.67" x="40.08" y="6.012" class="d">11</text><text font-size="1.67" x="47.093999999999994" y="6.012" class="d">38.216035</text><text font-size="1.67" x="57.114" y="6.012" class="d">0.00990099</text><text font-size="1.67" x="0" y="8.183" class="d">3</text><text font-size="1.67" x="9.017999999999999" y="8.183" class="d">2.0</text><text font-size="1.67" x="17.034" y="8.183" class="d">Diet4</text><text font-size="1.67" x="24.048" y="8.183" class="d">1</text><text font-size="1.67" x="30.059999999999995" y="8.183" class="d">2</text><text font-size="1.67" x="33.065999999999995" y="8.183" class="d">12</text><text font-size="1.67" x="40.08" y="8.183" class="d">11</text><text font-size="1.67" x="47.093999999999994" y="8.183" class="d">41.651468</text><text font-size="1.67" x="57.114" y="8.183" class="d">0.00990099</text><text font-size="1.67" x="0" y="10.354" class="d">4</text><text font-size="1.67" x="9.017999999999999" y="10.354" class="d">2.5</text><text font-size="1.67" x="17.034" y="10.354" class="d">Diet2</text><text font-size="1.67" x="24.048" y="10.354" class="d">1</text><text font-size="1.67" x="30.059999999999995" y="10.354" class="d">3</text><text font-size="1.67" x="34.068" y="10.354" class="d">4</text><text font-size="1.67" x="41.082" y="10.354" class="d">2</text><text font-size="1.67" x="48.096" y="10.354" class="d">6.121141</text><text font-size="1.67" x="57.114" y="10.354" class="d">0.04950495</text><text font-size="1.67" x="0" y="12.525" class="d">5</text><text font-size="1.67" x="9.017999999999999" y="12.525" class="d">2.5</text><text font-size="1.67" x="17.034" y="12.525" class="d">Diet3</text><text font-size="1.67" x="24.048" y="12.525" class="d">1</text><text font-size="1.67" x="30.059999999999995" y="12.525" class="d">3</text><text font-size="1.67" x="33.065999999999995" y="12.525" class="d">12</text><text font-size="1.67" x="40.08" y="12.525" class="d">10</text><text font-size="1.67" x="47.093999999999994" y="12.525" class="d">35.768957</text><text font-size="1.67" x="57.114" y="12.525" class="d">0.00990099</text><text font-size="1.67" x="0" y="14.696" class="d">6</text><text font-size="1.67" x="9.017999999999999" y="14.696" class="d">2.5</text><text font-size="1.67" x="17.034" y="14.696" class="d">Diet4</text><text font-size="1.67" x="24.048" y="14.696" class="d">1</text><text font-size="1.67" x="30.059999999999995" y="14.696" class="d">2</text><text font-size="1.67" x="34.068" y="14.696" class="d">8</text><text font-size="1.67" x="41.082" y="14.696" class="d">7</text><text font-size="1.67" x="47.093999999999994" y="14.696" class="d">32.442352</text><text font-size="1.67" x="57.114" y="14.696" class="d">0.00990099</text><text font-size="1.67" x="0" y="16.866999999999997" class="d">31</text><text font-size="1.67" x="9.017999999999999" y="16.866999999999997" class="d">3.0</text><text font-size="1.67" x="17.034" y="16.866999999999997" class="d">Diet3</text><text font-size="1.67" x="24.048" y="16.866999999999997" class="d">1</text><text font-size="1.67" x="30.059999999999995" y="16.866999999999997" class="d">3</text><text font-size="1.67" x="34.068" y="16.866999999999997" class="d">5</text><text font-size="1.67" x="41.082" y="16.866999999999997" class="d">3</text><text font-size="1.67" x="47.093999999999994" y="16.866999999999997" class="d">12.719231</text><text font-size="1.67" x="57.114" y="16.866999999999997" class="d">0.00990099</text><text font-size="1.67" x="0" y="19.037999999999997" class="d">21</text><text font-size="1.67" x="9.017999999999999" y="19.037999999999997" class="d">3.0</text><text font-size="1.67" x="17.034" y="19.037999999999997" class="d">Diet3</text><text font-size="1.67" x="24.048" y="19.037999999999997" class="d">2</text><text font-size="1.67" x="30.059999999999995" y="19.037999999999997" class="d">9</text><text font-size="1.67" x="33.065999999999995" y="19.037999999999997" class="d">12</text><text font-size="1.67" x="41.082" y="19.037999999999997" class="d">4</text><text font-size="1.67" x="47.093999999999994" y="19.037999999999997" class="d">14.037622</text><text font-size="1.67" x="57.114" y="19.037999999999997" class="d">0.00990099</text><text font-size="1.67" x="0" y="21.209000000000003" class="d">41</text><text font-size="1.67" x="9.017999999999999" y="21.209000000000003" class="d">3.0</text><text font-size="1.67" x="17.034" y="21.209000000000003" class="d">Diet4</text><text font-size="1.67" x="24.048" y="21.209000000000003" class="d">1</text><text font-size="1.67" x="30.059999999999995" y="21.209000000000003" class="d">2</text><text font-size="1.67" x="34.068" y="21.209000000000003" class="d">7</text><text font-size="1.67" x="41.082" y="21.209000000000003" class="d">6</text><text font-size="1.67" x="47.093999999999994" y="21.209000000000003" class="d">29.659402</text><text font-size="1.67" x="57.114" y="21.209000000000003" class="d">0.00990099</text></svg></svg></g></svg></svg>